<svg xmlns="http://www.w3.org/2000/svg" viewBox="0 0 22 25" id="Blackberry">
  <g id="Page-1" fill="none" fill-rule="evenodd" stroke="none" stroke-width="1">
    <g id="39--Blackberry--(Outline)" fill="#ffbf66" class="color000000 svgShape">
      <path id="Fill-149" d="M2.2066,6.009 L6.0256,6.009 C10.0256,6.009 10.0256,4.757 10.0256,4.009 C10.0256,2.719 8.9756,2.009 7.0676,2.009 L2.8726,2.009 L2.2066,6.009 Z M6.0256,8.009 L1.0256,8.009 C0.7316,8.009 0.4526,7.88 0.2636,7.655 C0.0726,7.431 -0.0094,7.134 0.0396,6.844 L1.0396,0.844 C1.1196,0.363 1.5366,0.009 2.0256,0.009 L7.0676,0.009 C10.7236,0.009 12.0256,2.075 12.0256,4.009 C12.0256,7.594 8.6026,8.009 6.0256,8.009 L6.0256,8.009 Z" fill="#ffbf66" class="color000000 svgShape"></path>
      <path id="Fill-150" d="M12.2066,14.009 L16.0256,14.009 C20.0256,14.009 20.0256,12.757 20.0256,12.009 C20.0256,10.719 18.9756,10.009 17.0676,10.009 L12.8726,10.009 L12.2066,14.009 Z M16.0256,16.009 L11.0256,16.009 C10.7316,16.009 10.4526,15.88 10.2636,15.655 C10.0726,15.431 9.9906,15.134 10.0396,14.844 L11.0396,8.844 C11.1196,8.363 11.5366,8.009 12.0256,8.009 L17.0676,8.009 C20.7236,8.009 22.0256,10.075 22.0256,12.009 C22.0256,15.594 18.6026,16.009 16.0256,16.009 L16.0256,16.009 Z" fill="#ffbf66" class="color000000 svgShape"></path>
      <path id="Fill-151" d="M2.2066,22.009 L6.0256,22.009 C10.0256,22.009 10.0256,20.757 10.0256,20.009 C10.0256,18.719 8.9756,18.009 7.0676,18.009 L2.8726,18.009 L2.2066,22.009 Z M6.0256,24.009 L1.0256,24.009 C0.7316,24.009 0.4526,23.88 0.2636,23.655 C0.0726,23.431 -0.0094,23.134 0.0396,22.844 L1.0396,16.844 C1.1196,16.363 1.5366,16.009 2.0256,16.009 L7.0676,16.009 C10.7236,16.009 12.0256,18.075 12.0256,20.009 C12.0256,23.594 8.6026,24.009 6.0256,24.009 L6.0256,24.009 Z" fill="#ffbf66" class="color000000 svgShape"></path>
    </g>
  </g>
</svg>
